<svg width="144" height="96" viewBox="0 0 144 96" fill="none" xmlns="http://www.w3.org/2000/svg">
<g clip-path="url(#clip0_18914_108796)">
<path d="M0 10C0 4.47715 4.47715 0 10 0H134C139.523 0 144 4.47715 144 10V86C144 91.5228 139.523 96 134 96H10C4.47715 96 0 91.5228 0 86V10Z" fill="url(#paint0_radial_18914_108796)"/>
<path d="M0 0V96H144V0H0Z" fill="url(#paint1_radial_18914_108796)"/>
<g filter="url(#filter0_dddddd_18914_108796)">
<path d="M12 20C12 15.5817 15.5817 12 20 12H124C128.418 12 132 15.5817 132 20V76C132 80.4183 128.418 84 124 84H20C15.5817 84 12 80.4183 12 76V20Z" fill="url(#paint2_linear_18914_108796)"/>
<circle opacity="0.5" cx="72" cy="48" r="24" fill="#BFC2CB"/>
<path d="M72 26C72 24.8954 72.897 23.9913 73.9978 24.0833C77.8445 24.4046 81.5677 25.6502 84.845 27.7267C88.6871 30.161 91.7583 33.637 93.7009 37.7495C95.6435 41.8621 96.3774 46.4421 95.8173 50.9558C95.3395 54.806 93.9368 58.4729 91.7416 61.6481C91.1134 62.5567 89.8454 62.6753 88.9922 61.9737L72.7297 48.6C72.2677 48.2201 72 47.6534 72 47.0553L72 26Z" fill="#A0A4B2"/>
</g>
</g>
<defs>
<filter id="filter0_dddddd_18914_108796" x="-8.59899" y="12" width="161.198" height="118.348" filterUnits="userSpaceOnUse" color-interpolation-filters="sRGB">
<feFlood flood-opacity="0" result="BackgroundImageFix"/>
<feColorMatrix in="SourceAlpha" type="matrix" values="0 0 0 0 0 0 0 0 0 0 0 0 0 0 0 0 0 0 127 0" result="hardAlpha"/>
<feOffset dy="0.712534"/>
<feGaussianBlur stdDeviation="0.285013"/>
<feColorMatrix type="matrix" values="0 0 0 0 0 0 0 0 0 0 0 0 0 0 0 0 0 0 0.0196802 0"/>
<feBlend mode="normal" in2="BackgroundImageFix" result="effect1_dropShadow_18914_108796"/>
<feColorMatrix in="SourceAlpha" type="matrix" values="0 0 0 0 0 0 0 0 0 0 0 0 0 0 0 0 0 0 127 0" result="hardAlpha"/>
<feOffset dy="1.71232"/>
<feGaussianBlur stdDeviation="0.684927"/>
<feColorMatrix type="matrix" values="0 0 0 0 0 0 0 0 0 0 0 0 0 0 0 0 0 0 0.0282725 0"/>
<feBlend mode="normal" in2="effect1_dropShadow_18914_108796" result="effect2_dropShadow_18914_108796"/>
<feColorMatrix in="SourceAlpha" type="matrix" values="0 0 0 0 0 0 0 0 0 0 0 0 0 0 0 0 0 0 127 0" result="hardAlpha"/>
<feOffset dy="3.22414"/>
<feGaussianBlur stdDeviation="1.28966"/>
<feColorMatrix type="matrix" values="0 0 0 0 0 0 0 0 0 0 0 0 0 0 0 0 0 0 0.035 0"/>
<feBlend mode="normal" in2="effect2_dropShadow_18914_108796" result="effect3_dropShadow_18914_108796"/>
<feColorMatrix in="SourceAlpha" type="matrix" values="0 0 0 0 0 0 0 0 0 0 0 0 0 0 0 0 0 0 127 0" result="hardAlpha"/>
<feOffset dy="5.75132"/>
<feGaussianBlur stdDeviation="2.30053"/>
<feColorMatrix type="matrix" values="0 0 0 0 0 0 0 0 0 0 0 0 0 0 0 0 0 0 0.0417275 0"/>
<feBlend mode="normal" in2="effect3_dropShadow_18914_108796" result="effect4_dropShadow_18914_108796"/>
<feColorMatrix in="SourceAlpha" type="matrix" values="0 0 0 0 0 0 0 0 0 0 0 0 0 0 0 0 0 0 127 0" result="hardAlpha"/>
<feOffset dy="10.7572"/>
<feGaussianBlur stdDeviation="4.30288"/>
<feColorMatrix type="matrix" values="0 0 0 0 0 0 0 0 0 0 0 0 0 0 0 0 0 0 0.0503198 0"/>
<feBlend mode="normal" in2="effect4_dropShadow_18914_108796" result="effect5_dropShadow_18914_108796"/>
<feColorMatrix in="SourceAlpha" type="matrix" values="0 0 0 0 0 0 0 0 0 0 0 0 0 0 0 0 0 0 127 0" result="hardAlpha"/>
<feOffset dy="25.7487"/>
<feGaussianBlur stdDeviation="10.2995"/>
<feColorMatrix type="matrix" values="0 0 0 0 0 0 0 0 0 0 0 0 0 0 0 0 0 0 0.07 0"/>
<feBlend mode="normal" in2="effect5_dropShadow_18914_108796" result="effect6_dropShadow_18914_108796"/>
<feBlend mode="normal" in="SourceGraphic" in2="effect6_dropShadow_18914_108796" result="shape"/>
</filter>
<radialGradient id="paint0_radial_18914_108796" cx="0" cy="0" r="1" gradientUnits="userSpaceOnUse" gradientTransform="translate(123 133) rotate(-119.665) scale(177.804 220.055)">
<stop offset="0.185666" stop-color="#8A5FB0"/>
<stop offset="0.547724" stop-color="#D496B8"/>
<stop offset="0.88092" stop-color="#E8E2F1"/>
</radialGradient>
<radialGradient id="paint1_radial_18914_108796" cx="0" cy="0" r="1" gradientUnits="userSpaceOnUse" gradientTransform="translate(-32.5 132.5) rotate(-38.3046) scale(163.751 243.829)">
<stop offset="0.29432" stop-color="#4647A4"/>
<stop offset="0.600316" stop-color="#C272B8"/>
<stop offset="1" stop-color="#C56FBA" stop-opacity="0"/>
</radialGradient>
<linearGradient id="paint2_linear_18914_108796" x1="72" y1="12" x2="72" y2="84" gradientUnits="userSpaceOnUse">
<stop stop-color="white"/>
<stop offset="0.475964" stop-color="white" stop-opacity="0.938125"/>
<stop offset="1" stop-color="white" stop-opacity="0.87"/>
</linearGradient>
<clipPath id="clip0_18914_108796">
<path d="M0 10C0 4.47715 4.47715 0 10 0H134C139.523 0 144 4.47715 144 10V86C144 91.5228 139.523 96 134 96H10C4.47715 96 0 91.5228 0 86V10Z" fill="white"/>
</clipPath>
</defs>
</svg>
